<?xml version="1.0" encoding="UTF-8"?>
<!-- Generator: visioncortex VTracer 0.6.5 -->
<svg version="1.1" xmlns="http://www.w3.org/2000/svg" width="256" height="256">
<path d="M0 0 C1.21 -0.01 2.43 -0.01 3.68 -0.02 C5.02 -0.01 6.37 -0.01 7.71 0 C9.13 -0 10.55 -0 11.96 -0.01 C15.81 -0.02 19.65 -0.01 23.5 0 C27.52 0.02 31.55 0.01 35.57 0.01 C42.32 0.01 49.07 0.02 55.83 0.04 C63.64 0.06 71.45 0.06 79.27 0.06 C86.78 0.05 94.29 0.06 101.8 0.07 C105 0.07 108.2 0.07 111.4 0.07 C115.16 0.07 118.93 0.08 122.69 0.09 C124.08 0.1 125.46 0.1 126.85 0.1 C128.73 0.09 130.61 0.1 132.5 0.11 C133.03 0.11 133.03 0.11 135.7 0.12 C138.19 0.37 138.19 0.37 140.19 2.37 C141.64 11.33 141.31 20.64 141.25 29.69 C141.24 30.92 141.24 32.14 141.23 33.41 C141.22 36.4 141.21 39.39 141.19 42.37 C142.22 42.36 143.25 42.35 144.31 42.34 C152.09 42.28 159.85 42.35 167.62 42.75 C168.35 42.78 169.08 42.81 169.83 42.84 C174.95 43.14 174.95 43.14 177.19 45.37 C177.44 47.71 177.44 47.71 177.45 50.69 C177.45 51.81 177.46 52.94 177.47 54.1 C177.47 55.34 177.46 56.59 177.46 57.87 C177.47 59.17 177.47 60.48 177.48 61.82 C177.49 65.4 177.49 68.99 177.49 72.57 C177.49 75.57 177.49 78.56 177.5 81.56 C177.51 88.63 177.51 95.69 177.5 102.76 C177.5 110.05 177.51 117.33 177.53 124.61 C177.55 130.87 177.55 137.13 177.55 143.38 C177.55 147.12 177.55 150.85 177.56 154.59 C177.58 158.76 177.57 162.93 177.56 167.11 C177.57 168.34 177.57 169.57 177.58 170.83 C177.53 178.44 177.06 184.59 172.32 190.84 C171.66 191.47 170.99 192.1 170.31 192.75 C169.65 193.4 169 194.04 168.32 194.71 C163.82 198.22 159.75 198.63 154.13 198.65 C153.43 198.65 152.74 198.66 152.02 198.66 C149.68 198.68 147.35 198.68 145.02 198.68 C143.34 198.69 141.66 198.7 139.99 198.71 C135.44 198.73 130.89 198.74 126.35 198.74 C123.51 198.75 120.66 198.75 117.82 198.76 C107.91 198.78 97.99 198.8 88.08 198.8 C78.84 198.8 69.6 198.83 60.36 198.88 C52.42 198.91 44.49 198.93 36.55 198.93 C31.81 198.93 27.07 198.94 22.34 198.96 C17.88 198.99 13.42 198.99 8.97 198.98 C7.33 198.97 5.7 198.98 4.07 199 C1.83 199.02 -0.4 199.01 -2.63 198.99 C-3.26 198.99 -3.26 198.99 -6.42 199 C-10.96 198.16 -12.59 196.64 -15.81 193.37 C-16.78 190.47 -16.95 188.59 -16.98 185.57 C-16.98 185.08 -16.98 185.08 -17 182.61 C-17.01 181.56 -17.01 180.51 -17.02 179.43 C-17.02 178.35 -17.03 177.28 -17.03 176.16 C-17.04 173.88 -17.05 171.6 -17.05 169.32 C-17.06 165.82 -17.1 162.32 -17.13 158.82 C-17.13 156.61 -17.14 154.4 -17.14 152.18 C-17.15 151.13 -17.17 150.08 -17.18 148.99 C-17.18 148.02 -17.17 147.05 -17.17 146.05 C-17.17 145.19 -17.18 144.34 -17.18 143.45 C-17.06 142.77 -16.94 142.08 -16.81 141.37 C-13.59 139.22 -12.53 139.17 -8.81 139.37 C-8.82 138.68 -8.82 137.98 -8.82 137.26 C-8.89 120.28 -8.94 103.31 -8.97 86.33 C-8.99 78.12 -9.01 69.92 -9.04 61.71 C-9.07 54.55 -9.09 47.4 -9.1 40.24 C-9.1 36.46 -9.11 32.67 -9.13 28.88 C-9.15 25.31 -9.16 21.75 -9.15 18.18 C-9.15 16.25 -9.17 14.31 -9.19 12.38 C-9.19 11.8 -9.19 11.8 -9.17 8.9 C-9.18 7.9 -9.18 6.9 -9.18 5.87 C-8.81 3.37 -8.81 3.37 -7.65 1.55 C-5.04 -0.12 -3.09 -0 0 0 Z " fill="#F3F3F4" transform="translate(47.81410217285156,27.625778198242188)"/>
<path d="M0 0 C1.21 -0.01 2.43 -0.01 3.68 -0.02 C5.02 -0.01 6.37 -0.01 7.71 0 C9.13 -0 10.55 -0 11.96 -0.01 C15.81 -0.02 19.65 -0.01 23.5 0 C27.52 0.02 31.55 0.01 35.57 0.01 C42.32 0.01 49.07 0.02 55.83 0.04 C63.64 0.06 71.45 0.06 79.27 0.06 C86.78 0.05 94.29 0.06 101.8 0.07 C105 0.07 108.2 0.07 111.4 0.07 C115.16 0.07 118.93 0.08 122.69 0.09 C124.08 0.1 125.46 0.1 126.85 0.1 C128.73 0.09 130.61 0.1 132.5 0.11 C133.03 0.11 133.03 0.11 135.7 0.12 C138.19 0.37 138.19 0.37 140.19 2.37 C141.64 11.33 141.31 20.64 141.25 29.69 C141.24 30.92 141.24 32.14 141.23 33.41 C141.22 36.4 141.21 39.39 141.19 42.37 C142.22 42.36 143.25 42.35 144.31 42.34 C152.09 42.28 159.85 42.35 167.62 42.75 C168.35 42.78 169.08 42.81 169.83 42.84 C174.95 43.14 174.95 43.14 177.19 45.37 C177.44 47.71 177.44 47.71 177.45 50.69 C177.45 51.81 177.46 52.94 177.47 54.1 C177.47 55.34 177.46 56.59 177.46 57.87 C177.47 59.17 177.47 60.48 177.48 61.82 C177.49 65.4 177.49 68.99 177.49 72.57 C177.49 75.57 177.49 78.56 177.5 81.56 C177.51 88.63 177.51 95.69 177.5 102.76 C177.5 110.05 177.51 117.33 177.53 124.61 C177.55 130.87 177.55 137.13 177.55 143.38 C177.55 147.12 177.55 150.85 177.56 154.59 C177.58 158.76 177.57 162.93 177.56 167.11 C177.57 168.34 177.57 169.57 177.58 170.83 C177.53 178.44 177.06 184.59 172.32 190.84 C171.66 191.47 170.99 192.1 170.31 192.75 C169.65 193.4 169 194.04 168.32 194.71 C163.82 198.22 159.75 198.63 154.13 198.65 C153.43 198.65 152.74 198.66 152.02 198.66 C149.68 198.68 147.35 198.68 145.02 198.68 C143.34 198.69 141.66 198.7 139.99 198.71 C135.44 198.73 130.89 198.74 126.35 198.74 C123.51 198.75 120.66 198.75 117.82 198.76 C107.91 198.78 97.99 198.8 88.08 198.8 C78.84 198.8 69.6 198.83 60.36 198.88 C52.42 198.91 44.49 198.93 36.55 198.93 C31.81 198.93 27.07 198.94 22.34 198.96 C17.88 198.99 13.42 198.99 8.97 198.98 C7.33 198.97 5.7 198.98 4.07 199 C1.83 199.02 -0.4 199.01 -2.63 198.99 C-3.26 198.99 -3.26 198.99 -6.42 199 C-10.96 198.16 -12.59 196.64 -15.81 193.37 C-16.78 190.47 -16.95 188.59 -16.98 185.57 C-16.98 185.08 -16.98 185.08 -17 182.61 C-17.01 181.56 -17.01 180.51 -17.02 179.43 C-17.02 178.35 -17.03 177.28 -17.03 176.16 C-17.04 173.88 -17.05 171.6 -17.05 169.32 C-17.06 165.82 -17.1 162.32 -17.13 158.82 C-17.13 156.61 -17.14 154.4 -17.14 152.18 C-17.15 151.13 -17.17 150.08 -17.18 148.99 C-17.18 148.02 -17.17 147.05 -17.17 146.05 C-17.17 145.19 -17.18 144.34 -17.18 143.45 C-17.06 142.77 -16.94 142.08 -16.81 141.37 C-13.59 139.22 -12.53 139.17 -8.81 139.37 C-8.82 138.68 -8.82 137.98 -8.82 137.26 C-8.89 120.28 -8.94 103.31 -8.97 86.33 C-8.99 78.12 -9.01 69.92 -9.04 61.71 C-9.07 54.55 -9.09 47.4 -9.1 40.24 C-9.1 36.46 -9.11 32.67 -9.13 28.88 C-9.15 25.31 -9.16 21.75 -9.15 18.18 C-9.15 16.25 -9.17 14.31 -9.19 12.38 C-9.19 11.8 -9.19 11.8 -9.17 8.9 C-9.18 7.9 -9.18 6.9 -9.18 5.87 C-8.81 3.37 -8.81 3.37 -7.65 1.55 C-5.04 -0.12 -3.09 -0 0 0 Z M0.19 8.37 C0.19 51.27 0.19 94.17 0.19 138.37 C60.62 138.81 60.62 138.81 79.74 138.94 C87.41 139 87.41 139 91 139.03 C93.52 139.05 96.04 139.07 98.56 139.08 C102.36 139.11 106.16 139.14 109.96 139.17 C111.09 139.17 112.22 139.18 113.39 139.19 C113.9 139.19 113.9 139.19 116.47 139.22 C116.92 139.22 116.92 139.22 119.17 139.24 C121.19 139.37 121.19 139.37 122.19 140.37 C122.31 142.87 122.31 142.87 122.19 145.37 C120.51 147.05 118.44 146.52 116.13 146.53 C115.58 146.54 115.58 146.54 112.81 146.56 C111.6 146.57 110.39 146.57 109.14 146.58 C107.87 146.59 106.6 146.6 105.3 146.61 C101.81 146.64 98.32 146.66 94.83 146.68 C91.19 146.7 87.55 146.73 83.91 146.75 C77.01 146.8 70.11 146.85 63.21 146.89 C55.36 146.94 47.51 147 39.66 147.05 C23.5 147.17 7.34 147.27 -8.81 147.37 C-8.84 153.18 -8.86 158.98 -8.87 164.78 C-8.87 166.76 -8.88 168.73 -8.89 170.71 C-8.9 173.54 -8.91 176.38 -8.91 179.21 C-8.92 180.1 -8.92 180.98 -8.93 181.9 C-8.93 188.15 -8.93 188.15 -7.81 190.37 C39.71 190.37 87.23 190.37 136.19 190.37 C135.2 187.4 134.21 184.43 133.19 181.37 C132.8 177.56 132.8 177.56 132.79 173.72 C132.78 173.01 132.77 172.3 132.77 171.56 C132.75 169.2 132.75 166.83 132.75 164.47 C132.74 162.77 132.73 161.06 132.72 159.35 C132.7 154.75 132.69 150.14 132.68 145.53 C132.67 140.7 132.64 135.88 132.62 131.05 C132.58 121.93 132.55 112.8 132.52 103.67 C132.49 91.34 132.44 79 132.38 66.66 C132.3 47.23 132.24 27.8 132.19 8.37 C88.63 8.37 45.07 8.37 0.19 8.37 Z " fill="#050606" transform="translate(47.81410217285156,27.625778198242188)"/>
<path d="M0 0 C0.94 0 1.89 0 2.86 0 C4.85 0.01 6.85 0.02 8.84 0.05 C11.89 0.09 14.95 0.09 18 0.09 C19.94 0.1 21.88 0.11 23.81 0.12 C24.73 0.13 25.64 0.13 26.59 0.13 C27.44 0.14 28.29 0.16 29.17 0.17 C29.91 0.18 30.66 0.19 31.43 0.19 C33.41 0.46 33.41 0.46 36.41 2.46 C36.78 5.32 36.78 5.32 36.77 8.93 C36.77 10.22 36.77 11.52 36.77 12.85 C36.76 13.52 36.75 14.2 36.74 14.89 C36.72 16.95 36.72 19.01 36.73 21.07 C36.67 31.19 36.67 31.19 34.41 33.46 C32.52 33.72 32.52 33.72 30.19 33.74 C29.32 33.75 28.45 33.75 27.55 33.76 C26.61 33.76 25.66 33.76 24.69 33.76 C23.72 33.77 22.76 33.77 21.76 33.77 C19.72 33.78 17.67 33.78 15.62 33.78 C12.48 33.77 9.35 33.8 6.21 33.82 C4.23 33.82 2.24 33.83 0.25 33.82 C-0.69 33.83 -1.63 33.84 -2.6 33.85 C-3.47 33.85 -4.35 33.84 -5.25 33.83 C-5.63 33.83 -5.63 33.83 -7.58 33.84 C-10.14 33.36 -11.03 32.52 -12.59 30.46 C-12.98 27.8 -12.98 27.8 -12.99 24.62 C-12.99 24.05 -12.99 24.05 -13 21.15 C-13 20.55 -13 20.55 -12.97 17.52 C-12.98 16.33 -12.99 15.14 -13 13.91 C-13 12.76 -13 11.61 -12.99 10.43 C-12.99 9.38 -12.99 8.34 -12.98 7.25 C-11.87 -0.76 -6.86 -0.11 0 0 Z " fill="#090909" transform="translate(67.59375,125.5390625)"/>
<path d="M0 0 C8.91 0 17.82 0 27 0 C27.09 16.85 27.16 33.69 27.21 50.54 C27.23 58.36 27.26 66.18 27.3 74.01 C27.34 80.82 27.37 87.64 27.38 94.46 C27.38 98.07 27.39 101.68 27.42 105.29 C27.46 109.32 27.46 113.35 27.45 117.39 C27.46 117.98 27.46 117.98 27.5 121 C27.47 127.29 27.34 131.28 23 136 C18.87 138.88 15.13 139.57 10.19 139.44 C6.47 138.69 4.61 136.68 2 134 C2.29 132.13 2.29 132.13 3 130 C5.5 128.43 7.87 127.1 10.5 125.81 C17.96 122.04 17.96 122.04 19 121 C19.1 119.6 19.13 118.19 19.13 116.79 C19.13 116.33 19.13 116.33 19.14 114.03 C19.13 113.03 19.13 112.02 19.13 110.99 C19.13 109.94 19.13 108.88 19.13 107.8 C19.14 104.3 19.14 100.81 19.13 97.31 C19.13 94.89 19.13 92.48 19.14 90.06 C19.14 84.99 19.14 79.91 19.13 74.84 C19.12 68.32 19.13 61.8 19.13 55.27 C19.14 50.28 19.14 45.29 19.13 40.29 C19.13 37.89 19.13 35.48 19.14 33.08 C19.14 29.72 19.13 26.37 19.13 23.01 C19.13 22.01 19.13 21 19.14 19.97 C19.13 19.06 19.13 18.15 19.13 17.21 C19.13 16.42 19.13 15.63 19.13 14.81 C19 13 19 13 18 12 C16.66 11.84 15.31 11.75 13.96 11.68 C13.16 11.64 12.35 11.6 11.51 11.56 C10.66 11.52 9.81 11.48 8.94 11.44 C8.08 11.39 7.23 11.35 6.35 11.31 C4.23 11.2 2.12 11.1 0 11 C0 7.37 0 3.74 0 0 Z " fill="#F5F5F6" transform="translate(189,79)"/>
<path d="M0 0 C3.63 0 7.26 0 11 0 C11 32.34 11 64.68 11 98 C2 103 2 103 0 103 C0 69.01 0 35.02 0 0 Z " fill="#F4F3F4" transform="translate(189,98)"/>
<path d="M0 0 C14.7 -0.05 29.4 -0.08 44.1 -0.1 C50.92 -0.11 57.75 -0.13 64.57 -0.15 C71.15 -0.17 77.73 -0.18 84.31 -0.19 C86.83 -0.19 89.35 -0.2 91.86 -0.21 C95.37 -0.23 98.89 -0.23 102.4 -0.23 C103.45 -0.23 104.5 -0.24 105.58 -0.25 C106.06 -0.25 106.06 -0.25 108.47 -0.24 C108.89 -0.24 108.89 -0.24 110.99 -0.25 C113 0 113 0 115 2 C115.12 4.63 115.12 4.63 115 7 C112 8.72 109.85 9.25 106.4 9.26 C105.48 9.27 104.56 9.27 103.62 9.28 C102.62 9.28 101.62 9.28 100.59 9.27 C99.53 9.28 98.47 9.28 97.38 9.29 C93.88 9.3 90.37 9.3 86.87 9.3 C84.44 9.3 82.01 9.31 79.58 9.31 C74.48 9.32 69.39 9.32 64.29 9.32 C57.75 9.31 51.21 9.33 44.67 9.35 C39.66 9.36 34.64 9.37 29.62 9.36 C27.2 9.36 24.79 9.37 22.38 9.38 C19.01 9.39 15.65 9.38 12.28 9.37 C11.28 9.38 10.28 9.39 9.25 9.4 C8.79 9.39 8.79 9.39 6.47 9.37 C5.68 9.37 4.88 9.37 4.06 9.37 C1.45 8.9 0.53 8.14 -1 6 C-0.69 2.81 -0.69 2.81 0 0 Z " fill="#0F1011" transform="translate(56,83)"/>
<path d="M0 0 C0.82 0 1.65 0 2.49 0 C3.44 -0 4.38 -0.01 5.35 -0.01 C6.39 -0.01 7.43 0 8.5 0.01 C9.59 0 10.68 0 11.81 0 C15.43 -0 19.05 0.01 22.67 0.02 C25.17 0.02 27.68 0.02 30.19 0.02 C35.44 0.02 40.7 0.03 45.96 0.04 C52.04 0.06 58.12 0.06 64.21 0.06 C70.06 0.06 75.9 0.07 81.75 0.08 C84.24 0.08 86.73 0.08 89.22 0.08 C92.7 0.08 96.17 0.09 99.64 0.1 C100.69 0.1 101.73 0.1 102.8 0.1 C103.74 0.11 104.68 0.11 105.65 0.12 C106.06 0.12 106.06 0.12 108.14 0.12 C110.01 0.25 110.01 0.25 111.01 1.25 C111.26 4.19 111.26 4.19 111.01 7.25 C107.83 9.37 107.07 9.5 103.44 9.5 C102.5 9.5 101.57 9.5 100.6 9.51 C99.58 9.5 98.55 9.5 97.49 9.49 C96.41 9.49 95.33 9.5 94.22 9.5 C90.63 9.5 87.05 9.49 83.47 9.48 C80.99 9.48 78.5 9.48 76.02 9.48 C70.15 9.48 64.28 9.46 58.41 9.45 C52.39 9.43 46.37 9.43 40.35 9.43 C35.23 9.43 30.1 9.43 24.98 9.42 C22.51 9.42 20.04 9.42 17.58 9.42 C14.14 9.41 10.7 9.4 7.26 9.39 C6.23 9.39 5.2 9.4 4.14 9.4 C3.21 9.39 2.28 9.39 1.32 9.38 C0.51 9.38 -0.31 9.38 -1.14 9.38 C-2.99 9.25 -2.99 9.25 -3.99 8.25 C-4.18 5.31 -4.18 5.31 -3.99 2.25 C-1.99 0.25 -1.99 0.25 0 0 Z " fill="#080B0A" transform="translate(59.99244785308838,184.7511110305786)"/>
<path d="M0 0 C0.47 -0 0.47 -0 2.83 -0.02 C3.86 -0.01 4.88 -0.01 5.94 -0 C7.02 -0.01 8.1 -0.01 9.22 -0.02 C12.8 -0.02 16.38 -0.02 19.97 -0.01 C22.45 -0.01 24.93 -0.01 27.41 -0.02 C33.28 -0.02 39.15 -0.01 45.03 -0 C49.72 0 54.4 0 59.09 -0.01 C65.55 -0.02 72 -0.02 78.45 -0.01 C80.92 -0.01 83.39 -0.01 85.85 -0.02 C89.29 -0.02 92.73 -0.02 96.17 -0 C96.69 -0.01 96.69 -0.01 99.29 -0.02 C100.22 -0.01 101.16 -0.01 102.12 0 C102.93 0 103.75 0 104.58 0 C106.56 0.25 106.56 0.25 108.56 2.25 C108.87 4.75 108.87 4.75 108.56 7.25 C105.39 9.36 104.65 9.5 101.04 9.5 C100.11 9.51 99.18 9.51 98.23 9.51 C97.21 9.51 96.2 9.5 95.15 9.5 C94.08 9.5 93.01 9.5 91.91 9.5 C88.36 9.51 84.82 9.5 81.27 9.48 C78.82 9.48 76.36 9.48 73.9 9.48 C68.75 9.48 63.6 9.47 58.45 9.46 C51.83 9.44 45.21 9.44 38.59 9.44 C33.52 9.44 28.45 9.43 23.37 9.43 C20.93 9.42 18.49 9.42 16.05 9.42 C12.65 9.42 9.24 9.41 5.84 9.4 C4.82 9.4 3.8 9.4 2.76 9.4 C1.83 9.4 0.91 9.39 -0.04 9.39 C-0.85 9.39 -1.66 9.38 -2.49 9.38 C-4.44 9.25 -4.44 9.25 -6.44 8.25 C-6.57 5.38 -6.57 5.38 -6.44 2.25 C-3.99 -0.19 -3.36 0 0 0 Z " fill="#0C0E0D" transform="translate(62.4410400390625,202.74603271484375)"/>
<path d="M0 0 C1.02 -0 2.04 -0.01 3.08 -0.01 C4.15 -0 5.22 0.01 6.32 0.02 C6.85 0.01 6.85 0.01 9.54 -0.01 C10.05 -0.01 10.05 -0.01 12.62 0 C13.09 0 13.09 0 15.46 0.01 C17.88 0.27 17.88 0.27 20.88 2.27 C20 8.14 20 8.14 18.88 9.27 C16.02 9.34 13.18 9.36 10.32 9.33 C9.51 9.32 8.7 9.32 7.87 9.31 C5.87 9.3 3.88 9.28 1.88 9.27 C1.88 10.26 1.88 11.25 1.88 12.27 C7.16 12.27 12.44 12.27 17.88 12.27 C17.88 14.58 17.88 16.89 17.88 19.27 C12.39 21.13 7.66 21.5 1.88 21.27 C1.88 22.59 1.88 23.91 1.88 25.27 C3.16 25.25 4.43 25.24 5.75 25.23 C7.42 25.22 9.08 25.21 10.75 25.2 C11.6 25.19 12.44 25.19 13.3 25.18 C14.11 25.17 14.92 25.17 15.75 25.17 C16.12 25.17 16.12 25.17 18 25.15 C19.88 25.27 19.88 25.27 21.88 26.27 C21.92 28.27 21.92 30.27 21.88 32.27 C19.23 34.91 11.5 33.45 7.94 33.45 C6.72 33.47 5.5 33.48 4.25 33.49 C3.67 33.49 3.67 33.49 0.73 33.5 C0.19 33.5 0.19 33.5 -2.52 33.51 C-5.12 33.27 -5.12 33.27 -7.12 31.27 C-7.38 28.41 -7.38 28.41 -7.39 24.8 C-7.39 23.5 -7.39 22.21 -7.39 20.88 C-7.39 20.2 -7.39 19.53 -7.38 18.83 C-7.37 16.77 -7.38 14.71 -7.39 12.65 C-7.39 11.36 -7.39 10.07 -7.39 8.73 C-7.38 7.54 -7.38 6.35 -7.38 5.12 C-6.92 0.01 -4.52 0.01 0 0 Z " fill="#090A0A" transform="translate(91.12109375,42.734375)"/>
<path d="M0 0 C4.88 0.88 4.88 0.88 6 2 C6.42 7.03 5.58 10.61 3.86 15.32 C2.41 19.84 1.57 24.5 0.65 29.16 C0 32 0 32 -1 33 C-3.38 33.31 -3.38 33.31 -6 33 C-8.78 30.32 -9.48 27.76 -10 24 C-10.27 24.56 -10.54 25.11 -10.81 25.69 C-11.2 26.45 -11.6 27.21 -12 28 C-12.21 28.45 -12.21 28.45 -13.25 30.75 C-13.83 31.49 -14.41 32.23 -15 33 C-18.19 33.31 -18.19 33.31 -21 33 C-22.85 28.86 -23.77 24.69 -24.56 20.25 C-24.63 19.9 -24.63 19.9 -24.95 18.11 C-27.48 3.95 -27.48 3.95 -26 1 C-24.02 1 -22.04 1 -20 1 C-18.67 5 -17.33 9 -16 13 C-15.87 12.29 -15.73 11.58 -15.6 10.85 C-15.42 9.93 -15.24 9.01 -15.06 8.06 C-14.89 7.15 -14.71 6.23 -14.54 5.29 C-14 3 -14 3 -13 2 C-11 1.96 -9 1.96 -7 2 C-6.01 4.97 -5.02 7.94 -4 11 C-3.86 10.37 -3.86 10.37 -3.12 7.19 C-2.43 4.15 -1.8 2.69 0 0 Z " fill="#080808" transform="translate(141,43)"/>
<path d="M0 0 C2.57 0.39 2.57 0.39 4.3 2.18 C4.79 2.97 5.27 3.76 5.76 4.57 C6.25 5.35 6.74 6.13 7.24 6.93 C8.56 9.36 9.6 11.8 10.57 14.39 C10.62 13.63 10.67 12.87 10.72 12.09 C10.8 11.09 10.87 10.1 10.95 9.07 C11.02 8.09 11.09 7.1 11.16 6.09 C11.57 3.39 11.57 3.39 13.57 0.39 C16.51 0.76 16.51 0.76 19.57 1.39 C21.86 5.96 20.8 12.3 20.82 17.32 C20.84 18.63 20.87 19.93 20.89 21.27 C20.89 22.51 20.9 23.76 20.9 25.04 C20.91 26.18 20.92 27.33 20.93 28.51 C20.57 31.39 20.57 31.39 19.17 33.28 C17.57 34.39 17.57 34.39 15.7 34.45 C10.52 31.86 7.87 26.46 5.57 21.39 C4.91 25.35 4.25 29.31 3.57 33.39 C1.24 33.43 -1.09 33.43 -3.43 33.39 C-5.86 30.96 -4.6 25.13 -4.61 21.73 C-4.61 21.03 -4.61 20.33 -4.61 19.6 C-4.61 17.46 -4.63 15.32 -4.65 13.18 C-4.65 11.82 -4.66 10.47 -4.66 9.11 C-4.66 7.87 -4.66 6.63 -4.67 5.35 C-4.36 1.64 -3.73 0.59 0 0 Z " fill="#070707" transform="translate(58.42578125,42.61328125)"/>
<path d="M0 0 C3.19 1.74 5.45 3.45 8 6 C7.44 10.56 7.44 10.56 6 12 C-0.6 11.4 -0.6 11.4 -3 9 C-4.32 9 -5.64 9 -7 9 C-7.33 9.99 -7.66 10.98 -8 12 C-7.26 12.07 -6.53 12.15 -5.77 12.23 C3.21 13.44 3.21 13.44 6.19 16.62 C8.55 21.03 8.72 23.06 8 28 C5.59 31.39 2.99 32.94 -1 34 C-5.84 34.59 -9.07 34.49 -13.44 32.19 C-16 30 -16 30 -18 27 C-18.19 24.38 -18.19 24.38 -18 22 C-17 21 -17 21 -14.19 20.69 C-10.25 21.07 -9.71 22.29 -7 25 C-3.75 25.25 -3.75 25.25 -1 25 C-1 24.34 -1 23.68 -1 23 C-1.74 22.77 -2.47 22.54 -3.23 22.3 C-13.78 18.78 -13.78 18.78 -17 14 C-17.68 9.79 -17.51 7.82 -15.25 4.19 C-10.69 -0.25 -6.18 -0.9 0 0 Z " fill="#090A0A" transform="translate(166,43)"/>
<path d="M0 0 C1.07 -0.01 2.15 -0.02 3.26 -0.03 C3.84 -0.03 3.84 -0.03 6.79 -0.04 C7.98 -0.05 9.17 -0.05 10.39 -0.06 C12.92 -0.07 15.44 -0.08 17.96 -0.08 C21.83 -0.09 25.7 -0.12 29.57 -0.15 C32.02 -0.16 34.46 -0.16 36.91 -0.17 C38.07 -0.18 39.24 -0.19 40.44 -0.2 C41.51 -0.2 42.59 -0.2 43.7 -0.2 C44.17 -0.2 44.17 -0.2 46.57 -0.21 C46.95 -0.15 46.95 -0.15 48.85 0.16 C50.85 3.16 50.85 3.16 50.54 5.79 C49.85 8.16 49.85 8.16 48.85 9.16 C47.13 9.26 45.42 9.29 43.7 9.29 C42.6 9.29 41.51 9.3 40.37 9.3 C39.18 9.3 37.98 9.3 36.75 9.29 C35.54 9.29 34.32 9.3 33.07 9.3 C30.49 9.3 27.91 9.3 25.33 9.29 C21.36 9.29 17.4 9.29 13.44 9.3 C10.94 9.3 8.44 9.3 5.94 9.29 C5.34 9.29 5.34 9.29 2.32 9.3 C1.22 9.3 0.13 9.29 -1.01 9.29 C-1.49 9.29 -1.49 9.29 -3.95 9.29 C-6.15 9.16 -6.15 9.16 -7.15 8.16 C-7.19 5.83 -7.19 3.49 -7.15 1.16 C-4.62 -0.11 -2.84 0.02 0 0 Z " fill="#0B0D0C" transform="translate(121.15234375,148.8388671875)"/>
<path d="M0 0 C1.21 -0.01 2.43 -0.01 3.68 -0.02 C5.02 -0.02 6.35 -0.02 7.69 -0.02 C9.05 -0.03 10.41 -0.03 11.77 -0.03 C14.63 -0.04 17.49 -0.04 20.35 -0.04 C24.01 -0.04 27.68 -0.05 31.35 -0.07 C34.16 -0.08 36.97 -0.08 39.78 -0.08 C41.14 -0.08 42.49 -0.09 43.84 -0.1 C45.73 -0.11 47.62 -0.1 49.51 -0.1 C50.58 -0.1 51.66 -0.1 52.77 -0.1 C55.32 0.15 55.32 0.15 57.32 2.15 C56.76 6.7 56.76 6.7 55.32 8.15 C53.43 8.25 51.53 8.28 49.64 8.29 C48.42 8.3 47.21 8.3 45.96 8.31 C44.62 8.31 43.28 8.31 41.95 8.31 C40.59 8.32 39.22 8.32 37.86 8.32 C35.01 8.33 32.15 8.33 29.29 8.33 C25.62 8.33 21.96 8.34 18.29 8.36 C15.48 8.37 12.67 8.37 9.85 8.37 C8.5 8.38 7.15 8.38 5.8 8.39 C3.91 8.4 2.02 8.39 0.13 8.39 C-0.41 8.39 -0.41 8.39 -3.13 8.39 C-5.68 8.15 -5.68 8.15 -7.68 6.15 C-6.94 0.08 -5.88 0.02 0 0 Z " fill="#020202" transform="translate(62.681396484375,97.854736328125)"/>
<path d="M0 0 C10.56 0 21.12 0 32 0 C32 4.95 32 9.9 32 15 C21.44 15 10.88 15 0 15 C0 10.05 0 5.1 0 0 Z " fill="#F2F3F3" transform="translate(64,135)"/>
<path d="M0 0 C7.28 -0.02 14.57 -0.04 21.85 -0.05 C25.23 -0.06 28.62 -0.06 32 -0.08 C35.88 -0.09 39.77 -0.09 43.65 -0.1 C44.87 -0.1 46.09 -0.11 47.35 -0.11 C47.91 -0.11 47.91 -0.11 50.75 -0.11 C51.74 -0.12 52.73 -0.12 53.75 -0.12 C56 0 56 0 57 1 C57.12 4 57.12 4 57 7 C55.29 8.71 53.09 8.13 50.76 8.13 C49.64 8.13 48.53 8.14 47.37 8.14 C46.16 8.14 44.94 8.13 43.69 8.13 C42.45 8.13 41.21 8.13 39.93 8.14 C37.31 8.14 34.68 8.14 32.05 8.13 C28.68 8.12 25.31 8.13 21.93 8.13 C18.73 8.14 15.52 8.14 12.31 8.13 C11.1 8.13 9.88 8.14 8.63 8.14 C8.07 8.14 8.07 8.14 5.24 8.13 C4.25 8.13 3.26 8.13 2.24 8.13 C0 8 0 8 -1 7 C-0.71 4.66 -0.38 2.33 0 0 Z " fill="#030404" transform="translate(114,115)"/>
<path d="M0 0 C1.09 -0.01 2.19 -0.01 3.32 -0.02 C3.91 -0.02 3.91 -0.02 6.93 -0.02 C8.14 -0.03 9.36 -0.03 10.61 -0.03 C13.18 -0.04 15.76 -0.04 18.33 -0.04 C22.29 -0.04 26.24 -0.06 30.19 -0.08 C32.69 -0.08 35.18 -0.08 37.68 -0.09 C38.87 -0.09 40.06 -0.1 41.28 -0.11 C42.38 -0.1 43.48 -0.1 44.61 -0.1 C45.58 -0.1 46.55 -0.1 47.55 -0.1 C49.87 0.15 49.87 0.15 51.87 2.15 C51.31 6.7 51.31 6.7 49.87 8.15 C48.16 8.24 46.44 8.27 44.72 8.27 C43.63 8.28 42.53 8.28 41.4 8.28 C40.2 8.28 39.01 8.28 37.78 8.28 C36.56 8.28 35.34 8.28 34.09 8.28 C31.51 8.28 28.93 8.28 26.35 8.28 C22.39 8.27 18.42 8.28 14.46 8.28 C11.96 8.28 9.46 8.28 6.96 8.28 C6.37 8.28 6.37 8.28 3.34 8.28 C2.24 8.28 1.15 8.28 0.02 8.27 C-0.47 8.27 -0.47 8.27 -2.93 8.27 C-5.13 8.15 -5.13 8.15 -6.13 7.15 C-6.26 4.15 -6.26 4.15 -6.13 1.15 C-4.44 -0.54 -2.32 0.01 0 0 Z " fill="#020201" transform="translate(120.130615234375,131.854736328125)"/>
<path d="M0 0 C0.47 -0 0.47 -0 2.83 -0.02 C3.85 -0.02 4.86 -0.02 5.91 -0.02 C6.95 -0.03 7.99 -0.03 9.05 -0.03 C11.25 -0.04 13.45 -0.04 15.65 -0.04 C19.02 -0.04 22.4 -0.06 25.77 -0.08 C27.9 -0.08 30.03 -0.08 32.16 -0.09 C33.18 -0.09 34.19 -0.1 35.24 -0.11 C36.17 -0.1 37.11 -0.1 38.08 -0.1 C38.91 -0.1 39.73 -0.1 40.59 -0.1 C42.6 0.15 42.6 0.15 44.6 2.15 C44.05 6.7 44.05 6.7 42.6 8.15 C41.14 8.24 39.66 8.27 38.19 8.27 C37.25 8.28 36.32 8.28 35.35 8.28 C34.33 8.28 33.31 8.28 32.26 8.28 C31.74 8.28 31.74 8.28 29.11 8.28 C26.91 8.28 24.71 8.28 22.5 8.28 C19.12 8.27 15.73 8.28 12.35 8.28 C10.22 8.28 8.08 8.28 5.95 8.28 C4.93 8.28 3.91 8.28 2.86 8.28 C2.39 8.28 2.39 8.28 0.02 8.27 C-0.81 8.27 -1.64 8.27 -2.5 8.27 C-4.4 8.15 -4.4 8.15 -5.4 7.15 C-5.52 4.15 -5.52 4.15 -5.4 1.15 C-3.81 -0.44 -2.2 0.01 0 0 Z " fill="#020202" transform="translate(61.396240234375,111.854736328125)"/>
<path d="M0 0 C0.86 -0 1.72 -0.01 2.6 -0.01 C4.43 -0.02 6.25 -0.02 8.07 -0.02 C10.86 -0.02 13.66 -0.04 16.45 -0.06 C18.22 -0.06 19.98 -0.06 21.75 -0.06 C22.17 -0.07 22.17 -0.07 24.29 -0.08 C30.21 -0.06 30.21 -0.06 32.44 2.17 C32.57 5.29 32.57 5.29 32.44 8.17 C29.13 9.82 25.43 9.35 21.79 9.37 C21.36 9.37 21.36 9.37 19.18 9.39 C17.37 9.4 15.55 9.4 13.74 9.41 C10.95 9.42 8.17 9.45 5.38 9.48 C3.62 9.49 1.86 9.49 0.1 9.5 C-0.32 9.5 -0.32 9.5 -2.44 9.53 C-4.78 9.52 -4.78 9.52 -8.56 9.17 C-10.56 6.17 -10.56 6.17 -10.25 3.54 C-8.78 -1.51 -4.51 0.01 0 0 Z " fill="#0D0F0E" transform="translate(138.55859375,97.83203125)"/>
<path d="M0 0 C0.88 0.29 1.77 0.57 2.68 0.87 C3.01 0.99 3.01 0.99 4.69 1.56 C4.69 2.88 4.69 4.2 4.69 5.56 C1.94 5.81 1.94 5.81 -1.31 5.56 C-2.69 4.27 -4.02 2.94 -5.31 1.56 C-8.06 0.81 -8.06 0.81 -10.31 0.56 C-10.31 0.23 -10.31 -0.1 -10.31 -0.44 C-6.34 -1.52 -3.89 -1.3 0 0 Z " fill="#D1D6DA" transform="translate(160.3125,63.4375)"/>
<path d="M0 0 C3.37 0.55 5.08 1.05 8 3 C9.66 3.38 11.32 3.73 13 4 C12.34 5.32 11.68 6.64 11 8 C7 6.67 3 5.33 -1 4 C-0.67 2.68 -0.34 1.36 0 0 Z " fill="#E0E0E4" transform="translate(159,51)"/>
<path d="M0 0 C1.65 0.33 3.3 0.66 5 1 C3.69 2.5 3.69 2.5 2 4 C1.01 4 0.02 4 -1 4 C-0.67 2.68 -0.34 1.36 0 0 Z " fill="#D4D6E1" transform="translate(159,51)"/>
</svg>
